<svg width="15" height="15" viewBox="0 0 29 23" fill="none" xmlns="http://www.w3.org/2000/svg">
<path d="M15.05 11.29C15.05 13.59 14.8 15.56 14.3 17.2C13.82 18.84 13.03 20.1 11.93 20.98C10.83 21.86 9.37 22.3 7.55 22.3C4.97 22.3 3.08 21.33 1.88 19.39C0.68 17.45 0.0800001 14.75 0.0800001 11.29C0.0800001 8.99 0.32 7.02 0.8 5.38C1.28 3.72 2.07 2.45 3.17 1.57C4.27 0.689999 5.73 0.249999 7.55 0.249999C10.11 0.249999 12 1.22 13.22 3.16C14.44 5.1 15.05 7.81 15.05 11.29ZM4.58 11.29C4.58 13.73 4.79 15.57 5.21 16.81C5.63 18.03 6.41 18.64 7.55 18.64C8.67 18.64 9.45 18.03 9.89 16.81C10.33 15.59 10.55 13.75 10.55 11.29C10.55 8.85 10.33 7.01 9.89 5.77C9.45 4.53 8.67 3.91 7.55 3.91C6.41 3.91 5.63 4.53 5.21 5.77C4.79 7.01 4.58 8.85 4.58 11.29ZM28.558 22H24.028V9.61C24.028 9.11 24.038 8.44 24.058 7.6C24.078 6.74 24.108 5.99 24.148 5.35C24.048 5.47 23.828 5.69 23.488 6.01C23.168 6.31 22.868 6.58 22.588 6.82L20.128 8.8L17.938 6.07L24.838 0.579999H28.558V22Z" fill="#878D92"/>
</svg>
