<svg width="33" height="23" viewBox="0 0 33 23" fill="none" xmlns="http://www.w3.org/2000/svg">
<path d="M15.05 11.29C15.05 13.59 14.8 15.56 14.3 17.2C13.82 18.84 13.03 20.1 11.93 20.98C10.83 21.86 9.37 22.3 7.55 22.3C4.97 22.3 3.08 21.33 1.88 19.39C0.68 17.45 0.0800001 14.75 0.0800001 11.29C0.0800001 8.99 0.32 7.02 0.8 5.38C1.28 3.72 2.07 2.45 3.17 1.57C4.27 0.689999 5.73 0.249999 7.55 0.249999C10.11 0.249999 12 1.22 13.22 3.16C14.44 5.1 15.05 7.81 15.05 11.29ZM4.58 11.29C4.58 13.73 4.79 15.57 5.21 16.81C5.63 18.03 6.41 18.64 7.55 18.64C8.67 18.64 9.45 18.03 9.89 16.81C10.33 15.59 10.55 13.75 10.55 11.29C10.55 8.85 10.33 7.01 9.89 5.77C9.45 4.53 8.67 3.91 7.55 3.91C6.41 3.91 5.63 4.53 5.21 5.77C4.79 7.01 4.58 8.85 4.58 11.29ZM31.498 5.38C31.498 6.86 31.048 8.04 30.148 8.92C29.268 9.8 28.178 10.4 26.878 10.72V10.81C28.578 11.03 29.878 11.56 30.778 12.4C31.678 13.24 32.128 14.36 32.128 15.76C32.128 17 31.818 18.12 31.198 19.12C30.598 20.1 29.658 20.88 28.378 21.46C27.118 22.02 25.488 22.3 23.488 22.3C21.168 22.3 19.108 21.91 17.308 21.13V17.29C18.228 17.75 19.188 18.1 20.188 18.34C21.188 18.58 22.128 18.7 23.008 18.7C24.628 18.7 25.758 18.42 26.398 17.86C27.058 17.3 27.388 16.51 27.388 15.49C27.388 14.91 27.238 14.41 26.938 13.99C26.638 13.57 26.108 13.26 25.348 13.06C24.608 12.84 23.568 12.73 22.228 12.73H20.608V9.25H22.258C23.578 9.25 24.578 9.13 25.258 8.89C25.958 8.63 26.428 8.29 26.668 7.87C26.928 7.43 27.058 6.93 27.058 6.37C27.058 5.61 26.818 5.02 26.338 4.6C25.878 4.16 25.098 3.94 23.998 3.94C22.978 3.94 22.088 4.12 21.328 4.48C20.568 4.84 19.938 5.18 19.438 5.5L17.338 2.38C18.178 1.78 19.158 1.28 20.278 0.879998C21.418 0.479999 22.768 0.279999 24.328 0.279999C26.528 0.279999 28.268 0.729999 29.548 1.63C30.848 2.51 31.498 3.76 31.498 5.38Z" fill="#878D92"/>
</svg>
