<svg width="1219" height="336" viewBox="0 0 1219 336" fill="none" xmlns="http://www.w3.org/2000/svg">
<g clip-path="url(#clip0_234_833)">
<path opacity="0.8" d="M1136.98 113.738C1155.65 71.8756 1162.01 26.6592 1158.09 0.0857697C1154.16 -26.4876 1205.08 -8.23623 1218.95 -3.18483C1228.46 0.275636 1226.57 11.048 1223.53 19.1214C1221.08 25.6301 1218.95 32.3812 1218.95 39.336V227.525C1218.95 237.885 1214.73 247.801 1207.19 254.909C1199.54 262.126 1189.55 271.451 1181.65 278.494C1158.33 299.283 1149.25 305.373 1119.8 319.785C1072.74 342.811 989.498 335.744 957.053 331.832C948.301 330.777 940.434 326.325 934.71 319.621C916.379 298.158 927.604 264.265 954.572 255.932C988.914 245.321 1030.15 229.759 1056.48 210.22C1097.6 179.693 1117.79 156.748 1136.98 113.738Z" fill="url(#paint0_linear_234_833)"/>
<path opacity="0.8" d="M82.0217 113.738C63.3455 71.8756 56.9877 26.6592 60.9146 0.0857697C64.8415 -26.4876 13.9235 -8.23623 0.0471816 -3.18483C-9.4588 0.275636 -7.56685 11.048 -4.52678 19.1214C-2.07591 25.6301 0.0472279 32.3812 0.0472279 39.336V227.525C0.0472279 237.885 4.27073 247.801 11.8088 254.909C19.4631 262.126 29.4541 271.451 37.353 278.494C60.6702 299.283 69.7512 305.373 99.202 319.785C146.256 342.811 229.502 335.744 261.947 331.832C270.699 330.777 278.566 326.325 284.29 319.621C302.621 298.158 291.396 264.265 264.428 255.932C230.086 245.321 188.848 229.759 162.524 210.22C121.395 179.693 101.21 156.748 82.0217 113.738Z" fill="url(#paint1_linear_234_833)"/>
</g>
<defs>
<linearGradient id="paint0_linear_234_833" x1="1251.84" y1="-2.36616" x2="1001.8" y2="417.539" gradientUnits="userSpaceOnUse">
<stop stop-color="white"/>
<stop offset="0.804594" stop-color="white" stop-opacity="0.03"/>
</linearGradient>
<linearGradient id="paint1_linear_234_833" x1="-32.8406" y1="-2.36616" x2="217.198" y2="417.539" gradientUnits="userSpaceOnUse">
<stop stop-color="white"/>
<stop offset="0.804594" stop-color="white" stop-opacity="0.03"/>
</linearGradient>
<clipPath id="clip0_234_833">
<rect width="1219" height="336" rx="10" fill="white"/>
</clipPath>
</defs>
</svg>
