<svg width="30" height="30" viewBox="0 0 30 30" fill="none" xmlns="http://www.w3.org/2000/svg">
<path d="M15 20C16.5625 20 17.8908 19.4529 18.985 18.3588C20.0792 17.2646 20.6258 15.9367 20.625 14.375C20.625 12.8125 20.0779 11.4842 18.9838 10.39C17.8896 9.29583 16.5617 8.74917 15 8.75C13.4375 8.75 12.1092 9.29708 11.015 10.3913C9.92083 11.4854 9.37417 12.8133 9.375 14.375C9.375 15.9375 9.92208 17.2658 11.0162 18.36C12.1104 19.4542 13.4383 20.0008 15 20ZM15 17.75C14.0625 17.75 13.2654 17.4217 12.6087 16.765C11.9521 16.1083 11.6242 15.3117 11.625 14.375C11.625 13.4375 11.9533 12.6404 12.61 11.9838C13.2667 11.3271 14.0633 10.9992 15 11C15.9375 11 16.7346 11.3283 17.3912 11.985C18.0479 12.6417 18.3758 13.4383 18.375 14.375C18.375 15.3125 18.0471 16.1096 17.3912 16.7663C16.7354 17.4229 15.9383 17.7508 15 17.75ZM15 23.75C12.1042 23.75 9.45833 22.9842 7.0625 21.4525C4.66667 19.9208 2.85417 17.8533 1.625 15.25C1.5625 15.1458 1.52083 15.0158 1.5 14.86C1.47917 14.7042 1.46875 14.5425 1.46875 14.375C1.46875 14.2083 1.47917 14.0467 1.5 13.89C1.52083 13.7333 1.5625 13.6033 1.625 13.5C2.85417 10.8958 4.66667 8.82792 7.0625 7.29625C9.45833 5.76458 12.1042 4.99917 15 5C17.8958 5 20.5417 5.76583 22.9375 7.2975C25.3333 8.82917 27.1458 10.8967 28.375 13.5C28.4375 13.6042 28.4792 13.7346 28.5 13.8913C28.5208 14.0479 28.5313 14.2092 28.5313 14.375C28.5313 14.5417 28.5208 14.7033 28.5 14.86C28.4792 15.0167 28.4375 15.1467 28.375 15.25C27.1458 17.8542 25.3333 19.9221 22.9375 21.4538C20.5417 22.9854 17.8958 23.7508 15 23.75Z" fill="#790853"/>
</svg>
