<svg width="24" height="24" viewBox="0 0 24 24" fill="none" xmlns="http://www.w3.org/2000/svg">
<path d="M6.34304 4.93782C6.43601 5.03069 6.50977 5.14098 6.56009 5.26238C6.61042 5.38378 6.63632 5.5139 6.63632 5.64532C6.63632 5.77673 6.61042 5.90686 6.56009 6.02826C6.50977 6.14966 6.43601 6.25994 6.34304 6.35282C4.84247 7.85363 3.99949 9.88902 3.99949 12.0113C3.99949 14.1336 4.84247 16.169 6.34304 17.6698C6.43588 17.7627 6.50952 17.873 6.55974 17.9944C6.60996 18.1158 6.63578 18.2458 6.63574 18.3772C6.63569 18.5085 6.60977 18.6386 6.55947 18.7599C6.50916 18.8812 6.43545 18.9915 6.34254 19.0843C6.24963 19.1772 6.13934 19.2508 6.01797 19.301C5.8966 19.3512 5.76653 19.3771 5.63518 19.377C5.50383 19.377 5.37378 19.3511 5.25245 19.3007C5.13111 19.2504 5.02088 19.1767 4.92804 19.0838C1.02204 15.1778 1.02204 8.84382 4.92804 4.93782C5.02091 4.84484 5.1312 4.77108 5.25259 4.72076C5.37399 4.67043 5.50412 4.64453 5.63554 4.64453C5.76695 4.64453 5.89708 4.67043 6.01848 4.72076C6.13987 4.77108 6.25016 4.84484 6.34304 4.93782ZM19.074 4.93782C22.98 8.84482 22.98 15.1778 19.074 19.0838C18.8854 19.266 18.6328 19.3668 18.3706 19.3645C18.1084 19.3622 17.8576 19.257 17.6722 19.0716C17.4868 18.8862 17.3816 18.6354 17.3794 18.3732C17.3771 18.111 17.4779 17.8584 17.66 17.6698C19.1606 16.169 20.0036 14.1336 20.0036 12.0113C20.0036 9.88902 19.1606 7.85363 17.66 6.35282C17.4724 6.16531 17.3669 5.91094 17.3668 5.64567C17.3667 5.3804 17.472 5.12596 17.6595 4.93832C17.847 4.75068 18.1014 4.64521 18.3667 4.64512C18.632 4.64502 18.8864 4.75031 19.074 4.93782ZM9.31004 7.81182C9.49751 7.99935 9.60282 8.25365 9.60282 8.51882C9.60282 8.78398 9.49751 9.03829 9.31004 9.22582C8.94599 9.58983 8.65721 10.022 8.46018 10.4976C8.26316 10.9732 8.16175 11.483 8.16175 11.9978C8.16175 12.5126 8.26316 13.0224 8.46018 13.498C8.65721 13.9737 8.94599 14.4058 9.31004 14.7698C9.40555 14.8621 9.48173 14.9724 9.53414 15.0944C9.58655 15.2164 9.61413 15.3476 9.61529 15.4804C9.61644 15.6132 9.59114 15.7449 9.54086 15.8678C9.49058 15.9907 9.41632 16.1023 9.32243 16.1962C9.22854 16.2901 9.11689 16.3644 8.99399 16.4146C8.87109 16.4649 8.73941 16.4902 8.60663 16.4891C8.47385 16.4879 8.34263 16.4603 8.22063 16.4079C8.09863 16.3555 7.98828 16.2793 7.89604 16.1838C6.78586 15.0736 6.16218 13.5679 6.16218 11.9978C6.16218 10.4278 6.78586 8.92203 7.89604 7.81182C8.08356 7.62435 8.33787 7.51903 8.60303 7.51903C8.8682 7.51903 9.12251 7.62435 9.31004 7.81182ZM16.269 7.81182C17.3792 8.92203 18.0029 10.4278 18.0029 11.9978C18.0029 13.5679 17.3792 15.0736 16.269 16.1838C16.1762 16.2767 16.066 16.3504 15.9446 16.4007C15.8233 16.4511 15.6932 16.477 15.5619 16.477C15.4305 16.4771 15.3005 16.4512 15.1791 16.401C15.0577 16.3508 14.9474 16.2772 14.8545 16.1843C14.7616 16.0915 14.6879 15.9812 14.6376 15.8599C14.5873 15.7386 14.5614 15.6085 14.5613 15.4772C14.5613 15.3458 14.5871 15.2158 14.6373 15.0944C14.6876 14.973 14.7612 14.8627 14.854 14.7698C15.2181 14.4058 15.5069 13.9737 15.7039 13.498C15.9009 13.0224 16.0023 12.5126 16.0023 11.9978C16.0023 11.483 15.9009 10.9732 15.7039 10.4976C15.5069 10.022 15.2181 9.58983 14.854 9.22582C14.6665 9.03818 14.5612 8.78373 14.5613 8.51846C14.5614 8.25319 14.6669 7.99883 14.8545 7.81132C15.0422 7.62381 15.2966 7.51852 15.5619 7.51862C15.8272 7.51871 16.0815 7.62418 16.269 7.81182ZM12.082 10.5818C12.279 10.5818 12.4741 10.6206 12.6561 10.696C12.838 10.7714 13.0034 10.8819 13.1427 11.0212C13.282 11.1604 13.3925 11.3258 13.4679 11.5078C13.5432 11.6898 13.582 11.8848 13.582 12.0818C13.582 12.2788 13.5432 12.4739 13.4679 12.6558C13.3925 12.8378 13.282 13.0032 13.1427 13.1425C13.0034 13.2818 12.838 13.3923 12.6561 13.4676C12.4741 13.543 12.279 13.5818 12.082 13.5818C11.6842 13.5818 11.3027 13.4238 11.0214 13.1425C10.7401 12.8612 10.582 12.4796 10.582 12.0818C10.582 11.684 10.7401 11.3025 11.0214 11.0212C11.3027 10.7399 11.6842 10.5818 12.082 10.5818Z" fill="#FF0000"/>
</svg>
