<svg width="30" height="30" viewBox="0 0 30 30" fill="none" xmlns="http://www.w3.org/2000/svg">
<path d="M8.75 25L3.75 20L8.75 15L10.5313 16.75L8.53125 18.75H13.75V21.25H8.53125L10.5 23.25L8.75 25ZM17.5 21.25C17.1458 21.25 16.8487 21.13 16.6087 20.89C16.3687 20.65 16.2492 20.3533 16.25 20C16.25 19.6458 16.37 19.3487 16.61 19.1087C16.85 18.8687 17.1467 18.7492 17.5 18.75C17.8542 18.75 18.1513 18.87 18.3913 19.11C18.6313 19.35 18.7508 19.6467 18.75 20C18.75 20.3542 18.63 20.6512 18.39 20.8912C18.15 21.1312 17.8533 21.2508 17.5 21.25ZM22.5 21.25C22.1458 21.25 21.8488 21.13 21.6088 20.89C21.3688 20.65 21.2492 20.3533 21.25 20C21.25 19.6458 21.37 19.3487 21.61 19.1087C21.85 18.8687 22.1467 18.7492 22.5 18.75C22.8542 18.75 23.1512 18.87 23.3912 19.11C23.6312 19.35 23.7508 19.6467 23.75 20C23.75 20.3542 23.63 20.6512 23.39 20.8912C23.15 21.1312 22.8533 21.2508 22.5 21.25ZM21.25 15L19.4687 13.25L21.4687 11.25H16.25V8.75H21.4687L19.5 6.75L21.25 5L26.25 10L21.25 15ZM7.5 11.25C7.14583 11.25 6.84875 11.13 6.60875 10.89C6.36875 10.65 6.24917 10.3533 6.25 10C6.25 9.64583 6.37 9.34875 6.61 9.10875C6.85 8.86875 7.14667 8.74917 7.5 8.75C7.85417 8.75 8.15125 8.87 8.39125 9.11C8.63125 9.35 8.75083 9.64667 8.75 10C8.75 10.3542 8.63 10.6513 8.39 10.8913C8.15 11.1313 7.85333 11.2508 7.5 11.25ZM12.5 11.25C12.1458 11.25 11.8487 11.13 11.6087 10.89C11.3687 10.65 11.2492 10.3533 11.25 10C11.25 9.64583 11.37 9.34875 11.61 9.10875C11.85 8.86875 12.1467 8.74917 12.5 8.75C12.8542 8.75 13.1513 8.87 13.3913 9.11C13.6313 9.35 13.7508 9.64667 13.75 10C13.75 10.3542 13.63 10.6513 13.39 10.8913C13.15 11.1313 12.8533 11.2508 12.5 11.25Z" fill="#FBC83B"/>
</svg>
