<svg width="24" height="24" viewBox="0 0 24 24" fill="none" xmlns="http://www.w3.org/2000/svg">
<path d="M22 10L21.375 8.625L20 8L21.375 7.375L22 6L22.625 7.375L24 8L22.625 8.625L22 10ZM19 6L18.05 3.95L16 3L18.05 2.05L19 0L19.95 2.05L22 3L19.95 3.95L19 6ZM9 22C8.45 22 7.97933 21.8043 7.588 21.413C7.196 21.021 7 20.55 7 20H11C11 20.55 10.8043 21.021 10.413 21.413C10.021 21.8043 9.55 22 9 22ZM5 19V17H13V19H5ZM5.25 16C4.1 15.3167 3.18767 14.4 2.513 13.25C1.83767 12.1 1.5 10.85 1.5 9.5C1.5 7.41667 2.22933 5.646 3.688 4.188C5.146 2.72933 6.91667 2 9 2C11.0833 2 12.854 2.72933 14.312 4.188C15.7707 5.646 16.5 7.41667 16.5 9.5C16.5 10.85 16.1627 12.1 15.488 13.25C14.8127 14.4 13.9 15.3167 12.75 16H5.25Z" fill="#FBC83B"/>
</svg>
