<svg width="33" height="23" viewBox="0 0 33 23" fill="none" xmlns="http://www.w3.org/2000/svg">
<path d="M15.05 11.29C15.05 13.59 14.8 15.56 14.3 17.2C13.82 18.84 13.03 20.1 11.93 20.98C10.83 21.86 9.37 22.3 7.55 22.3C4.97 22.3 3.08 21.33 1.88 19.39C0.68 17.45 0.0800001 14.75 0.0800001 11.29C0.0800001 8.99 0.32 7.02 0.8 5.38C1.28 3.72 2.07 2.45 3.17 1.57C4.27 0.689999 5.73 0.249999 7.55 0.249999C10.11 0.249999 12 1.22 13.22 3.16C14.44 5.1 15.05 7.81 15.05 11.29ZM4.58 11.29C4.58 13.73 4.79 15.57 5.21 16.81C5.63 18.03 6.41 18.64 7.55 18.64C8.67 18.64 9.45 18.03 9.89 16.81C10.33 15.59 10.55 13.75 10.55 11.29C10.55 8.85 10.33 7.01 9.89 5.77C9.45 4.53 8.67 3.91 7.55 3.91C6.41 3.91 5.63 4.53 5.21 5.77C4.79 7.01 4.58 8.85 4.58 11.29ZM32.338 22H17.368V18.85L22.738 13.42C23.818 12.3 24.688 11.37 25.348 10.63C26.008 9.87 26.488 9.19 26.788 8.59C27.088 7.97 27.238 7.31 27.238 6.61C27.238 5.75 26.998 5.11 26.518 4.69C26.058 4.27 25.428 4.06 24.628 4.06C23.808 4.06 23.008 4.25 22.228 4.63C21.448 5.01 20.628 5.55 19.768 6.25L17.308 3.34C17.908 2.82 18.558 2.33 19.258 1.87C19.958 1.39 20.758 1.01 21.658 0.729998C22.578 0.429999 23.678 0.279999 24.958 0.279999C26.358 0.279999 27.558 0.539999 28.558 1.06C29.578 1.56 30.358 2.25 30.898 3.13C31.458 3.99 31.738 4.97 31.738 6.07C31.738 7.25 31.498 8.33 31.018 9.31C30.558 10.29 29.878 11.26 28.978 12.22C28.098 13.18 27.028 14.24 25.768 15.4L23.008 17.98V18.19H32.338V22Z" fill="#878D92"/>
</svg>
