<svg width="176" height="52" viewBox="0 0 176 52" fill="none" xmlns="http://www.w3.org/2000/svg">
<mask id="mask0_220_746" style="mask-type:alpha" maskUnits="userSpaceOnUse" x="10" y="5" width="40" height="42">
<path d="M25 6.78519C28.094 4.99886 31.906 4.99886 35 6.78519L44.0526 12.0117C47.1466 13.798 49.0526 17.0993 49.0526 20.6719V31.1249C49.0526 34.6976 47.1466 37.9989 44.0526 39.7852L35 45.0117C31.906 46.798 28.094 46.798 25 45.0117L15.9474 39.7852C12.8534 37.9989 10.9474 34.6976 10.9474 31.1249V20.6719C10.9474 17.0993 12.8534 13.798 15.9474 12.0117L25 6.78519Z" fill="#C4C4C4"/>
</mask>
<g mask="url(#mask0_220_746)">
<path d="M30 3.89844L49.0526 14.8984V36.8984L30 47.8984L10.9474 36.8984V14.8984L30 3.89844Z" fill="#EA1D5D"/>
<path d="M37.4181 34.9512C38.2465 34.9587 38.9242 34.2933 38.9318 33.4649L38.9994 26.0635C38.9995 26.0546 38.9996 26.0457 38.9996 26.0369C39.0068 24.2572 38.4863 22.5154 37.5038 21.0315C36.5213 19.5476 35.1209 18.3883 33.4797 17.7002C31.8385 17.012 30.0301 16.8259 28.2831 17.1654C26.536 17.5047 24.9289 18.3545 23.6648 19.6072C22.4006 20.8597 21.5361 22.4591 21.1808 24.203C20.8254 25.9468 20.995 27.7569 21.6683 29.4043C22.3413 31.0518 23.4878 32.4627 24.9627 33.4586C26.4376 34.4546 28.1745 34.9911 29.9542 35C30.1515 35.001 30.3472 34.963 30.5299 34.8882C30.7126 34.8135 30.8787 34.7036 31.019 34.5646C31.1591 34.4257 31.2706 34.2605 31.347 34.0784C31.4233 33.8964 31.463 33.7012 31.464 33.5038C31.4649 33.3064 31.4269 33.1108 31.3521 32.9282C31.2774 32.7455 31.1674 32.5793 31.0286 32.439C30.8896 32.2989 30.7244 32.1874 30.5424 32.111C30.3604 32.0347 30.1651 31.995 29.9677 31.9941C28.7814 31.9885 27.6233 31.6314 26.64 30.9677C25.6566 30.3041 24.8923 29.3637 24.4433 28.2656C23.9944 27.1675 23.8811 25.9609 24.1179 24.7984C24.3547 23.636 24.9309 22.5698 25.7735 21.7347C26.6162 20.8997 27.6876 20.3333 28.8522 20.1072C30.0168 19.881 31.2223 20.0052 32.3163 20.4642C33.4102 20.923 34.3435 21.6961 34.9982 22.6854C35.6529 23.6748 35.9994 24.8366 35.9941 26.0229C35.9935 26.0676 35.995 26.1122 35.9984 26.1566L35.9319 33.4375C35.9243 34.2659 36.5897 34.9436 37.4181 34.9512Z" fill="white"/>
<path d="M28.1003 27.5506C27.1555 26.5884 27.1696 25.0425 28.1318 24.0976C29.0941 23.1528 30.64 23.1669 31.5848 24.1292C32.5296 25.0914 32.5155 26.6373 31.5532 27.5821C30.591 28.527 29.0451 28.5128 28.1003 27.5506Z" fill="white"/>
<path d="M37.4181 34.9512C38.2465 34.9587 38.9242 34.2933 38.9318 33.4649L38.9994 26.0635C38.9995 26.0546 38.9996 26.0457 38.9996 26.0369C39.0068 24.2572 38.4863 22.5154 37.5038 21.0315C36.5213 19.5476 35.1209 18.3883 33.4797 17.7002C31.8385 17.012 30.0301 16.8259 28.2831 17.1654C26.536 17.5047 24.9289 18.3545 23.6648 19.6072C22.4006 20.8597 21.5361 22.4591 21.1808 24.203C20.8254 25.9468 20.995 27.7569 21.6683 29.4043C22.3413 31.0518 23.4878 32.4627 24.9627 33.4586C26.4376 34.4546 28.1745 34.9911 29.9542 35C30.1515 35.001 30.3472 34.963 30.5299 34.8882C30.7126 34.8135 30.8787 34.7036 31.019 34.5646C31.1591 34.4257 31.2706 34.2605 31.347 34.0784C31.4233 33.8964 31.463 33.7012 31.464 33.5038C31.4649 33.3064 31.4269 33.1108 31.3521 32.9282C31.2774 32.7455 31.1674 32.5793 31.0286 32.439C30.8896 32.2989 30.7244 32.1874 30.5424 32.111C30.3604 32.0347 30.1651 31.995 29.9677 31.9941C28.7814 31.9885 27.6233 31.6314 26.64 30.9677C25.6566 30.3041 24.8923 29.3637 24.4433 28.2656C23.9944 27.1675 23.8811 25.9609 24.1179 24.7984C24.3547 23.636 24.9309 22.5698 25.7735 21.7347C26.6162 20.8997 27.6876 20.3333 28.8522 20.1072C30.0168 19.881 31.2223 20.0052 32.3163 20.4642C33.4102 20.923 34.3435 21.6961 34.9982 22.6854C35.6529 23.6748 35.9994 24.8366 35.9941 26.0229C35.9935 26.0676 35.995 26.1122 35.9984 26.1566L35.9319 33.4375C35.9243 34.2659 36.5897 34.9436 37.4181 34.9512Z" stroke="white" stroke-width="0.8"/>
<path d="M28.1003 27.5506C27.1555 26.5884 27.1696 25.0425 28.1318 24.0976C29.0941 23.1528 30.64 23.1669 31.5848 24.1292C32.5296 25.0914 32.5155 26.6373 31.5532 27.5821C30.591 28.527 29.0451 28.5128 28.1003 27.5506Z" stroke="white" stroke-width="0.8"/>
</g>
<path d="M68.6836 34.3516C67.0039 34.3516 65.4479 33.9349 64.0156 33.1016C62.5964 32.2552 61.457 31.0247 60.5977 29.4102C59.7383 27.7826 59.3086 25.7969 59.3086 23.4531C59.3086 21.1094 59.7643 19.1042 60.6758 17.4375C61.5872 15.7708 62.7786 14.4948 64.25 13.6094C65.7214 12.7109 67.2969 12.2617 68.9766 12.2617C70.6432 12.2617 72.1797 12.6849 73.5859 13.5312C75.0052 14.3646 76.138 15.5951 76.9844 17.2227C77.8438 18.8372 78.2734 20.8164 78.2734 23.1602C78.2734 25.5039 77.8242 27.5156 76.9258 29.1953C76.0273 30.862 74.849 32.138 73.3906 33.0234C71.9323 33.9089 70.3633 34.3516 68.6836 34.3516ZM68.8398 30.7773C70.3112 30.7773 71.5547 30.1393 72.5703 28.8633C73.599 27.5872 74.1133 25.8099 74.1133 23.5312C74.1133 21.1484 73.6185 19.2734 72.6289 17.9062C71.6523 16.526 70.3893 15.8359 68.8398 15.8359C67.2904 15.8359 66.0078 16.4935 64.9922 17.8086C63.9896 19.1107 63.4883 20.875 63.4883 23.1016C63.4883 25.4583 63.9831 27.3268 64.9727 28.707C65.9753 30.0872 67.2643 30.7773 68.8398 30.7773ZM82.1016 34C82.1016 34 82.1016 33.6745 82.1016 33.0234C82.1016 32.3724 82.1016 31.5586 82.1016 30.582C82.1016 29.5924 82.1016 28.5964 82.1016 27.5938C82.1016 26.5781 82.1016 25.7122 82.1016 24.9961C82.1016 23.5638 82.0169 22.3464 81.8477 21.3438C81.6914 20.3281 81.5352 19.5664 81.3789 19.0586H85.4023C85.5065 19.3451 85.6172 19.7878 85.7344 20.3867C85.8516 20.9727 85.9362 21.4349 85.9883 21.7734C86.9128 20.7057 87.8242 19.9375 88.7227 19.4688C89.6341 19 90.6042 18.7656 91.6328 18.7656C93.1172 18.7656 94.2826 19.2799 95.1289 20.3086C95.9753 21.3242 96.3984 22.8411 96.3984 24.8594C96.3984 25.3411 96.3984 25.9661 96.3984 26.7344C96.3984 27.4896 96.3984 28.2839 96.3984 29.1172C96.3984 29.9505 96.3984 30.7383 96.3984 31.4805C96.3984 32.2227 96.3984 32.8281 96.3984 33.2969C96.3984 33.7656 96.3984 34 96.3984 34H92.2969C92.2969 34 92.2969 33.6875 92.2969 33.0625C92.2969 32.4245 92.2969 31.6497 92.2969 30.7383C92.2969 29.8138 92.2969 28.9154 92.2969 28.043C92.2969 27.1576 92.2969 26.4609 92.2969 25.9531C92.2969 24.599 92.1146 23.6615 91.75 23.1406C91.3854 22.6198 90.806 22.3594 90.0117 22.3594C89.1784 22.3594 88.3971 22.6979 87.668 23.375C86.9518 24.0391 86.4635 24.7487 86.2031 25.5039V34H82.1016ZM100.871 34V17.457C100.871 16.0247 100.845 14.7292 100.793 13.5703C100.741 12.4115 100.669 11.4089 100.578 10.5625H104.973V27.0469C104.973 27.6719 104.979 28.4336 104.992 29.332C105.018 30.2174 105.051 31.0833 105.09 31.9297C105.142 32.776 105.201 33.4661 105.266 34H100.871ZM111.184 40.875C109.803 40.875 108.566 40.4583 107.473 39.625L108.488 36.4414C108.788 36.6888 109.191 36.9297 109.699 37.1641C110.207 37.4115 110.702 37.5352 111.184 37.5352C111.626 37.5352 112.082 37.3333 112.551 36.9297C113.02 36.5391 113.54 35.6471 114.113 34.2539L110.246 24.2734C109.986 23.5964 109.667 22.8477 109.289 22.0273C108.924 21.194 108.462 20.2044 107.902 19.0586H112.473L115.988 29.7227C116.262 28.7852 116.568 27.7109 116.906 26.5C117.245 25.2891 117.57 24.1172 117.883 22.9844C118.195 21.8516 118.456 20.9141 118.664 20.1719C118.872 19.4297 118.977 19.0586 118.977 19.0586H123.566C123.059 20.2044 122.635 21.1875 122.297 22.0078C121.971 22.8281 121.685 23.5833 121.438 24.2734L117.922 34C117.245 35.888 116.555 37.3268 115.852 38.3164C115.161 39.306 114.432 39.9766 113.664 40.3281C112.909 40.6927 112.082 40.875 111.184 40.875ZM139.822 17.28C143.369 15.76 145.249 15 145.462 15C145.676 15 145.782 15.1733 145.782 15.52C145.782 15.84 145.436 16.52 144.742 17.56C143.462 19.56 141.636 21.0267 139.262 21.96C138.649 25.3467 137.462 28.6933 135.702 32C134.529 34.2933 133.209 35.44 131.742 35.44C130.916 35.44 130.022 35.04 129.062 34.24C128.396 33.6533 127.942 33.0667 127.702 32.48C127.356 31.6533 127.062 30.8667 126.822 30.12C126.609 29.3733 126.502 28.56 126.502 27.68C126.502 26.7733 126.769 25.8533 127.302 24.92C127.836 23.96 128.556 23.12 129.462 22.4C131.062 21.0933 132.916 20.0133 135.022 19.16L136.662 18.52C136.716 18.0133 136.742 16.9867 136.742 15.44C136.742 13.8667 136.582 12.2933 136.262 10.72C136.076 9.54667 135.462 8.96 134.422 8.96C133.942 8.96 133.516 9.06667 133.142 9.28C132.769 9.49333 132.529 9.93333 132.422 10.6C131.702 14.12 130.369 17.0667 128.422 19.44C127.622 20.4267 126.929 20.92 126.342 20.92C125.782 20.92 125.302 20.5467 124.902 19.8C124.822 19.5867 124.756 19.28 124.702 18.88C124.676 18.4533 124.636 18.12 124.582 17.88C124.556 17.64 124.542 17.4133 124.542 17.2C124.542 15.8667 125.396 14.2933 127.102 12.48C127.742 11.7867 128.329 10.9333 128.862 9.92C129.396 8.88 129.662 7.81333 129.662 6.72L129.622 5.72C129.622 5.37333 129.716 5.2 129.902 5.2C130.142 5.2 130.889 5.82667 132.142 7.08C132.996 6.52 133.982 6.24 135.102 6.24C136.249 6.24 137.222 6.72 138.022 7.68C138.822 8.61333 139.329 9.84 139.542 11.36C139.782 12.8533 139.876 14.8267 139.822 17.28ZM135.942 22.96L134.062 23.44C133.502 23.5733 132.676 23.6933 131.582 23.8C130.516 23.9067 129.729 24.0133 129.222 24.12C128.236 24.3067 127.742 24.8133 127.742 25.64C127.742 26.4667 128.289 27.4267 129.382 28.52C130.476 29.5867 131.369 30.12 132.062 30.12C132.782 30.12 133.276 29.8533 133.542 29.32C134.556 27.5067 135.356 25.3867 135.942 22.96ZM145.461 15.8L147.381 15.44C147.995 15.44 148.568 15.6667 149.101 16.12C149.155 16.1733 149.315 16.3067 149.581 16.52C149.875 16.7333 150.101 16.9067 150.261 17.04C150.688 17.44 150.901 17.7867 150.901 18.08C150.901 18.3467 150.661 19.1467 150.181 20.48C149.701 21.8133 149.195 23.2267 148.661 24.72C147.968 26.56 147.621 27.5733 147.621 27.76C147.621 27.9467 147.688 28.04 147.821 28.04C148.035 28.04 148.835 26.7733 150.221 24.24C151.608 21.7067 152.661 19.72 153.381 18.28C153.648 17.7733 154.021 17.52 154.501 17.52C155.621 17.52 156.181 17.9867 156.181 18.92C156.181 19.4533 155.835 20.96 155.141 23.44C154.261 26.72 153.821 28.5067 153.821 28.8C153.821 29.0667 153.888 29.2 154.021 29.2C154.181 29.2 154.488 28.5067 154.941 27.12C155.395 25.7067 155.715 25 155.901 25C156.008 25 156.141 25.12 156.301 25.36C156.968 26.7467 157.301 28.0267 157.301 29.2C157.301 30.3733 156.888 31.72 156.061 33.24C155.688 33.96 155.168 34.32 154.501 34.32C154.075 34.32 153.768 34.2133 153.581 34C153.048 33.3867 152.728 32.9733 152.621 32.76C152.115 32.12 151.701 30.9733 151.381 29.32C151.195 29.6667 150.955 30.16 150.661 30.8C150.048 32.2133 149.488 33.24 148.981 33.88C148.661 34.3333 148.248 34.56 147.741 34.56C147.261 34.56 146.728 34.2133 146.141 33.52C145.261 32.32 144.808 30.9733 144.781 29.48C144.781 27.9867 144.928 26.5867 145.221 25.28C145.541 23.9733 146.021 22.3867 146.661 20.52L146.781 20.04C146.781 19.8267 146.688 19.72 146.501 19.72L145.581 19.96C145.128 19.96 144.808 19.6933 144.621 19.16C144.195 18.2 143.981 17.16 143.981 16.04C143.981 15.72 144.115 15.56 144.381 15.56L145.461 15.8ZM171.337 25.12C171.337 26.4267 171.27 27.56 171.137 28.52C171.004 29.48 170.524 30.7733 169.697 32.4C168.87 34 168.057 34.8 167.257 34.8C166.91 34.8 166.577 34.6133 166.257 34.24C164.684 32.3467 163.897 30.5467 163.897 28.84C163.897 28.3333 164.07 27.1733 164.417 25.36C164.897 22.64 165.137 21.1333 165.137 20.84C165.137 20.52 165.084 20.36 164.977 20.36C164.897 20.36 164.804 20.4667 164.697 20.68C164.004 21.9067 163.444 23.3067 163.017 24.88C162.59 26.4267 162.31 27.7333 162.177 28.8C162.044 29.8667 161.897 31.36 161.737 33.28C161.737 33.9467 161.564 34.28 161.217 34.28C161.057 34.28 160.79 34.1333 160.417 33.84C158.977 32.6133 158.257 30.9333 158.257 28.8C158.257 27.8933 158.337 26.64 158.497 25.04C158.684 23.44 158.79 22.3333 158.817 21.72C159.11 18.0133 159.47 16.16 159.897 16.16C160.137 16.16 160.31 16.4267 160.417 16.96C160.524 17.4667 160.577 18.0533 160.577 18.72C160.577 19.36 160.59 19.9467 160.617 20.48C160.67 21.0133 160.777 21.28 160.937 21.28C161.097 21.28 161.324 20.8533 161.617 20C161.91 19.1467 162.337 18.2933 162.897 17.44C163.484 16.56 164.11 16.12 164.777 16.12C165.444 16.12 166.03 16.2667 166.537 16.56C167.684 17.1467 168.257 18.3733 168.257 20.24C168.257 20.88 168.177 21.6667 168.017 22.6C167.857 23.5333 167.71 24.56 167.577 25.68C167.47 26.7733 167.417 27.4 167.417 27.56C167.417 27.6933 167.47 27.76 167.577 27.76C167.79 27.76 168.324 27.2267 169.177 26.16C170.057 25.0933 170.657 24.56 170.977 24.56C171.217 24.56 171.337 24.7467 171.337 25.12Z" fill="black"/>
</svg>
